<svg id="katman_1" data-name="katman 1" xmlns="http://www.w3.org/2000/svg" viewBox="0 0 550.83 187.65">
<defs><style>.cls-1{fill:#fff;}</style></defs>
<path class="cls-1" d="M247.53,54.12c-16.28,0-30.13,5.22-43.16,28.06,0,0,2.49-12.88,16.2-26h-16.4a11.6,11.6,0,0,0-8.67,3.66A12.09,12.09,0,0,0,192,68.5V201.94h16.52a9.49,9.49,0,0,0,7.08-3,10.1,10.1,0,0,0,2.93-7.32V154q10.74,11.36,29,11.35,21.72,0,36.37-15.26t14.64-40.36q0-25.09-14.64-40.35T247.53,54.12Zm17,78.92a24.84,24.84,0,0,1-19.37,8.44A25.78,25.78,0,0,1,225.48,133q-7.57-8.44-7.57-23.14t7.72-23.3A25.09,25.09,0,0,1,245.14,78a24.66,24.66,0,0,1,19.37,8.6q7.55,8.61,7.56,23.3T264.51,133Zm142.6-78.91c-34.08,0-56,23-56.65,54.3-.67,34.18,23.89,56.12,57,56.87,22.67.52,34.22-6.29,41.15-12,2.69-2.19,3.55-7.55.46-11.19l-9.63-11c-7.78,7.8-19.74,12-30.82,11.82-17.58-.33-28.15-8.84-30.89-24.7-1.9-10.94,0-16.32,0-16.32a51.72,51.72,0,0,0,2.94,16.38l74.81.85a6.05,6.05,0,0,0,6.12-5.81c.1-2.82.12-5.43.1-6.73C461.11,75.38,437.09,54.12,407.11,54.13ZM377.88,99.35a28.94,28.94,0,0,1,28.24-25.17c14.57.07,26.27,8.77,28,25.17Zm184.32-24q-5.87-11.19-15.26-16.2a39.22,39.22,0,0,0-20.63-5c-7.61.15-12,.72-19.74,5.73-7.95,5.13-12.39,9.93-17.46,21,0,0,1.36-14.26,15.15-24.71l-17.15,0A12.09,12.09,0,0,0,478.2,60a13,13,0,0,0-3.78,9.51v96.12H486a14.79,14.79,0,0,0,11.16-4.85A15.18,15.18,0,0,0,501,150.5V107c0-8.74,2.33-14.9,5.73-19.54a19.81,19.81,0,0,1,16.77-8.18c11.37.46,18.15,9.21,18.15,24.12v62.3H553.2a14.86,14.86,0,0,0,14.86-14.86V103Q568,86.51,562.2,75.33ZM314.77,57.75a12.52,12.52,0,0,0-3.54,9.07v98.85h12.35a13.78,13.78,0,0,0,14.18-14.25V54.12H323.44A11.67,11.67,0,0,0,314.77,57.75Zm9.79-43.46c-8.62.16-14.4,6.05-14.4,13.52s6.45,13.52,14.4,13.52A14.88,14.88,0,0,0,333,38.72a18.44,18.44,0,0,1-2.91,2.33s1.2,1.23,5.85,1.85c.18,0,2.1.36,1.24-1-.23-.44-1.88-2.39-.65-6.51,0,0,.23-.26.24-.28A11.65,11.65,0,0,0,339,27.81C339.05,20,333.13,14.13,324.56,14.29Z" transform="translate(-17.23 -14.28)"/>
<path class="cls-1" d="M166.11,132.43a53.9,53.9,0,0,0,3-4.61l0-.06s0-.09.07-.13c.27-.48.52-.9.85-1.53l-.12.06a73.24,73.24,0,0,0,9.26-36.3q0-32.74-23-54.15t-58-21.39q-34.94,0-58,21.39t-23,54.15a73.89,73.89,0,0,0,8.21,34.73,72.07,72.07,0,0,0,22.89,26,80.25,80.25,0,0,0,33.75,13.47,104,104,0,0,0,17.48,1.42l1.07-.05c.75,0,1.46-.05,2.19-.08,2.07-.08,4.11-.22,6.1-.42.54-.06,1.08-.11,1.61-.18A83,83,0,0,0,147.26,151,108.25,108.25,0,0,1,130.9,164s6.72,6.88,32.93,10.41c1,.13,11.79,2,6.95-5.48C169.5,166.5,152.82,152.56,166.11,132.43Zm-98.54.45c-14.45-8.59-24.4-23.08-25.45-40.07C40.34,64.2,64.31,39.44,95.66,37.51s58.2,19.68,60,48.29c1.6,25.82-17.8,48.44-44.64,54a66,66,0,0,0,12.48,2.72s-20.4,6.42-47.7-5.63a57.79,57.79,0,0,1-8.12-4Zm1.35-48.62a6.16,6.16,0,1,0,6.6,6.14A6.39,6.39,0,0,0,68.92,84.26Zm59.94,0a6.16,6.16,0,1,0,6.61,6.14A6.38,6.38,0,0,0,128.86,84.26Zm-30,0a6.16,6.16,0,1,0,6.61,6.14A6.39,6.39,0,0,0,98.89,84.26Z" transform="translate(-17.23 -14.28)"/>
</svg>