<svg width="31" height="32" xmlns="http://www.w3.org/2000/svg" data-name="katman 1">
 <defs>
  <style>.cls-2{fill:#AAAAAA;}</style>
 </defs>
 <g>
  <title>Layer 1</title>
  <path d="m28.44266,23.15566a10.31634,10.54894 0 0 0 0.57419,-0.90223l0,-0.01175s0,-0.01761 0.0134,-0.02545c0.05168,-0.09394 0.09952,-0.17614 0.16269,-0.29944l-0.02297,0.01174a14.01798,14.33403 0 0 0 1.77235,-7.10438q0,-6.40765 -4.40215,-10.59787t-11.10108,-4.1863q-6.68744,0 -11.10108,4.1863t-4.40215,10.59787a14.14239,14.46125 0 0 0 1.57137,6.79712a13.79404,14.10504 0 0 0 4.3811,5.08854a15.35968,15.70598 0 0 0 6.45968,2.63626a19.90538,20.35416 0 0 0 3.34564,0.27791l0.20479,-0.00979c0.14355,0 0.27944,-0.00979 0.41917,-0.01566c0.39619,-0.01566 0.78664,-0.04306 1.16753,-0.0822c0.10335,-0.01174 0.2067,-0.02152 0.30815,-0.03522a15.88603,16.24419 0 0 0 7.04152,-2.69106a20.71882,21.18595 0 0 1 -3.13127,2.54427s1.28619,1.34651 6.30273,2.03738c0.1914,0.02545 2.25658,0.39142 1.33022,-1.07251c-0.24499,-0.47559 -3.4375,-3.20382 -0.89383,-7.14353zm-18.86035,0.08807c-2.76569,-1.68118 -4.6701,-4.51706 -4.87107,-7.84223c-0.34069,-5.59935 4.24711,-10.44521 10.24744,-10.82293s11.13936,3.85164 11.48387,9.45099c0.30624,5.05331 -3.40688,9.48034 -8.544,10.56851a12.63226,12.91707 0 0 0 2.38864,0.53234s-3.90451,1.25648 -9.12967,-1.10187a11.06088,11.31026 0 0 1 -1.55415,-0.78286l-0.02106,-0.00195zm0.25839,-9.51558a1.17901,1.20559 0 1 0 1.26322,1.20169a1.22303,1.25061 0 0 0 -1.26322,-1.20169zm11.47239,0a1.17901,1.20559 0 1 0 1.26514,1.20169a1.22112,1.24865 0 0 0 -1.26514,-1.20169zm-5.74194,0a1.17901,1.20559 0 1 0 1.26514,1.20169a1.22303,1.25061 0 0 0 -1.25939,-1.20169l-0.00574,0z" class="cls-2"/>
 </g>
</svg>