<svg width="199" height="199" xmlns="http://www.w3.org/2000/svg" data-name="katman 1">
 <defs>
  <style>.cls-2{fill:#AAAAAA;}</style>
 </defs>
 <g>
  <title>Layer 1</title>
  <path stroke="null" class="cls-2" d="m182.89664,146.13282a66.20985,66.67009 0 0 0 3.68513,-5.70216l0,-0.07426s0,-0.1113 0.086,-0.16085c0.33168,-0.59371 0.63872,-1.11322 1.04414,-1.89248l-0.14742,0.0742a89.96682,90.59214 0 0 0 11.37487,-44.90021q0,-40.49682 -28.25282,-66.97933t-71.24628,-26.45773q-42.91972,0 -71.24628,26.45773t-28.25282,66.97933a90.76528,91.39618 0 0 0 10.08499,42.9583a88.52958,89.1449 0 0 0 28.11772,32.15995a98.5778,99.26296 0 0 0 41.45796,16.66136a127.75191,128.63981 0 0 0 21.47218,1.75641l1.31433,-0.06187c0.9213,0 1.79343,-0.06187 2.69022,-0.09897c2.54273,-0.09897 5.04862,-0.27214 7.49316,-0.51951c0.6633,-0.0742 1.32659,-0.13601 1.97769,-0.22259a101.95589,102.66449 0 0 0 45.19219,-17.0077a132.97254,133.89678 0 0 1 -20.09636,16.07998s8.25471,8.51004 40.45066,12.87639c1.2284,0.16085 14.48264,2.4738 8.5373,-6.77834c-1.57234,-3.00576 -22.06173,-20.24838 -5.73656,-45.14764zm-121.04495,0.55661c-17.75009,-10.62518 -29.97251,-28.54816 -31.26233,-49.56348c-2.18653,-35.38831 27.25778,-66.0145 65.76765,-68.40172s71.49196,24.34265 73.70301,59.73096c1.96544,31.9373 -21.86522,59.91645 -54.83504,66.79377a81.07333,81.63684 0 0 0 15.33019,3.36443s-25.05899,7.94105 -58.59385,-6.9639a70.98827,71.48169 0 0 1 -9.97447,-4.94773l-0.13516,-0.01232zm1.65834,-60.13917a7.56684,7.61942 0 1 0 8.10729,7.59477a7.84936,7.90395 0 0 0 -8.10729,-7.59477zm73.62933,0a7.56684,7.61942 0 1 0 8.11962,7.59477a7.8371,7.89156 0 0 0 -8.11962,-7.59477zm-36.85154,0a7.56684,7.61942 0 1 0 8.11962,7.59477a7.84936,7.90395 0 0 0 -8.08271,-7.59477l-0.03684,0l-0.00006,0z" id="svg_1"/>
 </g>
</svg>